<svg version="1.2" xmlns="http://www.w3.org/2000/svg" viewBox="0 0 278 42" width="278" height="42">
	<style>
		.s0 { fill: #2dff34 } 
		.s1 { fill: #ffce5f } 
		.s2 { fill: #00b7ff } 
		.s3 { fill: #ffffff } 
	</style>
	<path class="s0" d="m38.77 12.19l-1.72 5.97-1.1-1.11-5.79 5.53-4.16 3.98-3.4 3.24-3.2-3.24-1.51-1.54-1.86-1.89-0.56-0.57-3.07-3.11-1.18 1.15-0.39 0.39-1.87 1.82-1.87 1.83-1.93 1.89-0.03 0.03-2.76 2.69-2.37 2.32 3.77-5.01 5.19-6.9 1.87-2.49 1.61-2.15 3.59 3.64 1.53 1.55 0.33 0.34 4.78 4.85 0.43-0.41 1.86-1.78 0.83-0.79 2.42-2.31 1.95-1.86 3.59-3.43-1.1-1.1z"/>
	<path class="s1" d="m8.96 12.19v7.47l-5.19 6.9h-0.01v-14.37z"/>
	<path class="s2" d="m37.6 22.42c0 10.8-8.95 19.58-19.95 19.58-5.62 0-10.84-2.32-14.53-6.16q-1.1-1.14-2-2.44l2.3-2.24 3.68-3.6 1.03-1 0.83-0.81 1.87-1.83 0.41-0.4 0.97-0.96 0.16-0.16v0.01l0.09-0.09 3.57 3.62 1.55 1.57 5.11 5.19 3.12-2.98 2.42-2.31 0.89-0.85 1.04-1 3.6-3.44-11.14 14.98-7.14-7.24-3.07-3.11-1.17 1.15-4.14 4.04-1.74 1.7c3.11 3.28 7.53 5.25 12.29 5.25 9.25 0 16.78-7.39 16.78-16.47h3.17z"/>
	<path class="s1" d="m16.03 7.84v10.82l-3.59-3.64-1.61 2.15v-9.33z"/>
	<path class="s1" d="m23.09 4.32v20.67l-0.42 0.41-4.78-4.85v-16.23z"/>
	<path class="s1" d="m30.16 0v18.25l-1.95 1.86-2.42 2.31-0.83 0.79v-23.21z"/>
	<path id="Stock Vision" class="s3" aria-label="Stock Vision"  d="m61.6 27.5c-1.1 0-2.4-0.4-3.7-1.3-0.3-0.2-0.5-0.3-0.8-0.3-0.5 0-0.9 0.3-1.1 0.8l-1 1.9c-0.3 0.6-0.1 1.4 0.4 1.7 1.9 1.4 4.1 2.1 6.3 2.1 4.2 0 7.5-2.9 7.5-7.3 0-2.8-1.5-5.2-4.2-6.3-1.5-0.7-1.9-0.8-2-0.9-2.7-1.2-3.2-1.9-3.2-3 0-1.2 0.9-2.1 2.3-2.1 0.6 0 1.9 0.2 3.7 1.4v0.1c0.2 0.1 0.5 0.2 0.8 0.2 0.5 0 0.9-0.3 1.1-0.8l1-2c0.2-0.5 0-1.2-0.4-1.6-1.8-1.4-4.1-2.2-6.3-2.2-4 0-7 3-7 7.2 0 3.7 2 5.6 5.1 7.1l0.9 0.3c2.7 1.2 3.3 1.5 3.4 2.8 0 1.4-1.1 2.2-2.8 2.2zm27-17.8c0-0.8-0.6-1.4-1.3-1.4h-13.4c-0.7 0-1.2 0.6-1.2 1.4v2.3c0 0.7 0.5 1.3 1.2 1.3h4.3v17.4c0 0.7 0.6 1.3 1.3 1.3h2.3c0.7 0 1.3-0.6 1.3-1.3v-17.4h4.2c0.7 0 1.3-0.6 1.3-1.3zm19.6 7.2c0-4.8-3.6-8.9-8.4-8.9-4.8 0-8.4 4.1-8.4 8.9v6.6c0 4.8 3.6 9 8.4 9 4.9 0 8.4-4.2 8.4-9zm-4.8 6.7c0 2-1.5 3.9-3.6 3.9-2 0-3.5-2-3.5-3.9v-6.7c0-2 1.5-3.9 3.5-3.9 2.1 0 3.6 1.9 3.6 3.9zm23.3 2.5c-0.4-0.4-0.7-0.5-1-0.5-0.2 0-0.6 0.1-0.9 0.5-0.8 1-1.9 1.4-3.2 1.4-1.8 0-3.4-1.8-3.4-3.9v-6.6c0-2.1 1.6-3.9 3.4-3.9 1.3 0 2.4 0.4 3.2 1.4 0.3 0.4 0.7 0.5 1 0.5 0.3 0 0.6-0.2 0.9-0.5l1.3-1.4c0.3-0.4 0.4-0.7 0.4-1.1 0-0.3-0.1-0.7-0.4-0.9-1.5-2-3.8-3-6.4-3-4.7 0-8.2 4.2-8.2 8.9v6.6c0 4.7 3.4 9 8.2 9 2.6 0 4.9-1.1 6.5-3.1 0.2-0.3 0.3-0.6 0.3-0.9 0-0.4-0.1-0.8-0.4-1.1zm10.5 6.1c0.7 0 1.2-0.6 1.2-1.3v-8.1h0.2l6.4 8.7c0.4 0.4 0.8 0.7 1.4 0.7h2.7c0.7 0 1.2-0.5 1.2-1.2 0-0.3-0.1-0.6-0.2-0.8l-7.4-10 7.3-9.7c0.2-0.2 0.3-0.5 0.3-0.8 0-0.7-0.5-1.2-1.2-1.2h-2.7c-0.5 0-1 0.2-1.4 0.7l-6.5 8.8h-0.1v-8.2c0-0.8-0.5-1.3-1.2-1.3h-2.3c-0.7 0-1.3 0.5-1.3 1.3v21.1c0 0.7 0.6 1.3 1.3 1.3zm39.3-23.7c-0.7 0-1.3 0.5-1.5 1.2l-4.1 14.2-4.2-14.2c-0.2-0.7-0.8-1.2-1.5-1.2h-2.1c-0.7 0-1.3 0.6-1.3 1.4 0 0.2 0 0.3 0.1 0.4l6.3 20.9c0.2 0.7 0.8 1.1 1.5 1.1h2.3c0.7 0 1.3-0.4 1.5-1.1l6.4-20.9c0-0.1 0.1-0.2 0.1-0.4 0-0.8-0.6-1.4-1.4-1.4zm8.7-0.2c-0.7 0-1.3 0.6-1.3 1.4v2.1c0 0.8 0.6 1.4 1.3 1.4h1.8v14.1h-1.8c-0.7 0-1.3 0.6-1.3 1.4v2.1c0 0.8 0.6 1.4 1.3 1.4h8.6c0.7 0 1.2-0.6 1.2-1.4v-2.1c0-0.8-0.5-1.4-1.2-1.4h-1.9v-14.1h1.9c0.7 0 1.2-0.6 1.2-1.4v-2.1c0-0.8-0.5-1.4-1.2-1.4zm19.4 19.4c-1.1 0-2.4-0.5-3.7-1.4-0.3-0.2-0.5-0.2-0.8-0.2-0.5 0-0.9 0.3-1.1 0.7l-1 2c-0.3 0.5-0.1 1.3 0.3 1.6 2 1.4 4.2 2.2 6.4 2.2 4.2 0 7.5-2.9 7.5-7.3 0-2.9-1.5-5.2-4.2-6.4-1.5-0.6-1.9-0.8-2-0.8-2.7-1.2-3.2-2-3.2-3 0-1.3 0.9-2.1 2.3-2.1 0.6 0 1.9 0.2 3.7 1.4 0.2 0.2 0.5 0.2 0.8 0.2 0.4 0 0.9-0.2 1.1-0.7l0.9-2c0.3-0.5 0.1-1.3-0.3-1.6-1.8-1.4-4.1-2.2-6.3-2.2-4 0-7 2.9-7 7.2 0 3.7 2 5.6 5.1 7l0.9 0.4c2.7 1.2 3.2 1.5 3.4 2.8-0.1 1.4-1.1 2.2-2.8 2.2zm13.6-19.4c-0.7 0-1.3 0.6-1.3 1.4v2.1c0 0.8 0.6 1.4 1.3 1.4h1.8v14.1h-1.8c-0.7 0-1.3 0.6-1.3 1.4v2.1c0 0.8 0.6 1.4 1.3 1.4h8.6c0.7 0 1.2-0.6 1.2-1.4v-2.1c0-0.8-0.5-1.4-1.2-1.4h-1.9v-14.1h1.9c0.7 0 1.2-0.6 1.2-1.4v-2.1c0-0.8-0.5-1.4-1.2-1.4zm30.1 8.7c0-4.7-3.7-8.9-8.5-8.9-4.7 0-8.4 4.2-8.4 8.9v6.7c0 4.7 3.6 8.9 8.4 8.9 4.9 0 8.5-4.2 8.5-8.9zm-4.9 6.6c0 2-1.5 3.9-3.6 3.9-2 0-3.5-1.9-3.5-3.9v-6.6c0-2 1.5-3.9 3.5-3.9 2.1 0 3.6 1.9 3.6 3.9zm22.5 7.7c0.3 0.5 0.8 0.8 1.3 0.8h2.4c0.9 0 1.5-0.7 1.5-1.6v-20.8c0-0.8-0.5-1.3-1.2-1.3h-2.1c-0.7 0-1.3 0.5-1.3 1.3v12.6l-7.3-13.2c-0.3-0.5-0.7-0.7-1.3-0.7h-2.4c-0.8 0-1.5 0.7-1.5 1.6v20.7c0 0.8 0.6 1.4 1.3 1.4h2.1c0.7 0 1.2-0.6 1.2-1.4v-12.5z"/>
	<path id="Layer 1" fill-rule="evenodd" class="s3" d="m240.01 23.64c-1.95 0-3.77-1.24-3.77-3.18 0-1.94 1.69-3.54 3.64-3.54 1.94 0 3.5 1.38 3.5 3.32 0 1.94-1.43 3.4-3.37 3.4z"/>
</svg>